<svg xmlns="http://www.w3.org/2000/svg" viewBox="0 0 240 160" fill="none" role="img" aria-label="Industry know-how illustration">
  <ellipse cx="120" cy="138" rx="88" ry="12" fill="#282C68" fill-opacity="0.08"/>
  <path d="M52 118h136v-64l-34-16-34 16-34-16-34 16v64Z" fill="#ECF2FA" stroke="#94A0C8" stroke-width="1.5"/>
  <path d="M86 54 120 38l34 16v48l-34 16-34-16V54Z" fill="#fff" stroke="#94A0C8" stroke-width="1.5"/>
  <circle cx="120" cy="78" r="22" fill="#282C68" fill-opacity="0.08" stroke="#282C68" stroke-width="2"/>
  <path d="M120 66v14l10 6" stroke="#EE5C31" stroke-width="3" stroke-linecap="round" stroke-linejoin="round"/>
  <rect x="96" y="104" width="16" height="10" rx="1" fill="#282C68"/>
  <rect x="112" y="100" width="16" height="14" rx="1" fill="#EE5C31"/>
  <rect x="128" y="96" width="16" height="18" rx="1" fill="#94A0C8"/>
  <path d="M156 88c8-4 18-4 26 0" stroke="#282C68" stroke-width="2" stroke-linecap="round"/>
  <circle cx="156" cy="88" r="5" fill="#fff" stroke="#282C68" stroke-width="1.5"/>
  <circle cx="182" cy="88" r="5" fill="#fff" stroke="#282C68" stroke-width="1.5"/>
</svg>
